# xmcd CD database file generated by OrangeCD 5.2
#
# Track frame offsets:
#	150
#	59632
#	75473
#	126070
#	158989
#	178095
#
# Disc length: 3157 seconds
#
# Revision: 1
# Processed by: cddbd v1.5.1PL0 Copyright (c) Steve Scherf et al.
# Submitted via: OrangeCD 5.2
#
DISCID=4a0c5306
DTITLE=Stevie Ray Vaughan - Best Little Blueshouse In Texas-Antone's, Austin, T
DTITLE=X - 27feb83
DYEAR=1900
DGENRE=Blues
TTITLE0=01 - Crosscut Saw with Albert King Band 26feb83
TTITLE1=02 - So Excited
TTITLE2=03 - Voodoo Chile (Slight Return)
TTITLE3=04 - The Things (That) I Used To Do
TTITLE4=05 - Pride And Joy
TTITLE5=06 - Tin Pan Alley
EXTD=
EXTT0=
EXTT1=
EXTT2=
EXTT3=
EXTT4=
EXTT5=
PLAYORDER=
